<?xml version="1.0" standalone="no"?>
<!DOCTYPE svg PUBLIC "-//W3C//DTD SVG 20010904//EN"
 "http://www.w3.org/TR/2001/REC-SVG-20010904/DTD/svg10.dtd">
<svg version="1.0" xmlns="http://www.w3.org/2000/svg"
 width="16.000000pt" height="16.000000pt" viewBox="0 0 16.000000 16.000000"
 preserveAspectRatio="xMidYMid meet">
<metadata>
Created by potrace 1.11, written by Peter Selinger 2001-2013
</metadata>
<g transform="translate(0.000000,16.000000) scale(0.003200,-0.003200)"
fill="#000000" stroke="none">
<path d="M70 4700 l0 -220 2435 0 2435 0 0 220 0 220 -2435 0 -2435 0 0 -220z"/>
<path d="M205 3938 l0 -313 792 -3 791 -2 -155 -223 c-86 -122 -177 -251 -202
-287 -214 -308 -425 -611 -481 -690 -37 -52 -100 -142 -140 -200 -41 -58 -119
-170 -175 -250 -55 -80 -148 -212 -205 -295 -58 -82 -119 -170 -137 -195 -134
-191 -188 -276 -204 -322 -14 -42 -18 -89 -19 -235 l-1 -183 1973 1 c2081 0
2013 -1 2211 44 78 18 223 78 304 127 134 80 277 254 332 403 57 155 66 447
19 601 -94 312 -362 521 -768 600 l-94 18 73 18 c135 33 303 131 409 239 103
105 191 257 229 399 24 90 24 316 0 419 -58 242 -193 413 -413 519 -110 54
-190 78 -329 101 -116 19 -185 20 -1965 20 l-1845 1 0 -312z m3256 251 c456
-1 544 -9 719 -64 35 -11 167 -69 189 -83 106 -67 204 -171 257 -274 18 -35
65 -168 59 -168 -2 0 3 -22 10 -50 13 -51 14 -272 1 -317 -3 -13 -8 -33 -11
-45 -53 -241 -246 -452 -506 -551 -208 -79 -260 -85 -859 -86 l-496 -2 1 818
0 818 115 5 c63 3 118 4 121 3 4 -2 184 -3 400 -4z m-711 -1659 l0 -1160 -815
0 -815 0 56 78 c30 42 175 248 321 457 146 209 289 414 318 455 28 41 101 145
160 230 59 85 127 182 150 215 23 33 133 191 245 350 111 160 241 345 288 413
47 67 87 122 89 122 2 0 3 -522 3 -1160z m1280 -54 c19 -3 64 -11 100 -18 392
-67 676 -325 731 -663 16 -101 6 -287 -21 -390 -42 -163 -138 -307 -267 -403
-56 -41 -162 -101 -193 -108 -5 -1 -10 -2 -55 -20 -11 -4 -22 -8 -25 -9 -197
-62 -276 -68 -920 -67 -278 0 -516 1 -530 1 l-25 1 1 838 c1 460 2 840 3 845
1 9 1150 3 1201 -7z"/>
<path d="M70 310 l0 -220 2435 0 2435 0 0 220 0 220 -2435 0 -2435 0 0 -220z"/>
</g>
</svg>
