<?xml version="1.0" standalone="no"?>
<!DOCTYPE svg PUBLIC "-//W3C//DTD SVG 20010904//EN"
 "http://www.w3.org/TR/2001/REC-SVG-20010904/DTD/svg10.dtd">
<svg version="1.0" xmlns="http://www.w3.org/2000/svg"
 width="16.000000pt" height="16.000000pt" viewBox="0 0 16.000000 16.000000"
 preserveAspectRatio="xMidYMid meet">
<metadata>
Created by potrace 1.11, written by Peter Selinger 2001-2013
</metadata>
<g transform="translate(0.000000,16.000000) scale(0.003125,-0.003125)"
fill="#000000" stroke="none">
<path d="M207 4365 c-2 -5 -3 -228 -3 -495 l1 -485 438 -3 c240 -1 437 -4 437
-7 0 -6 -185 -425 -266 -603 -13 -28 -36 -80 -50 -115 -15 -34 -42 -95 -60
-135 -19 -41 -34 -75 -34 -77 0 -2 -13 -32 -29 -67 -26 -56 -515 -1154 -528
-1185 -4 -10 146 -13 729 -13 l735 0 38 103 c21 56 73 197 115 312 150 404
210 567 210 571 0 2 -112 4 -250 4 -137 0 -250 4 -250 8 0 7 179 416 235 537
7 17 22 50 33 75 11 25 29 66 41 93 11 26 31 68 42 95 12 26 29 65 39 87 9 22
26 60 38 85 11 25 63 142 115 260 52 118 104 235 115 260 12 25 55 124 97 220
42 96 87 198 100 225 12 28 33 75 46 105 13 30 33 75 45 100 12 25 20 47 17
50 -10 10 -2193 5 -2196 -5z"/>
<path d="M2660 2780 l0 -1601 688 3 c678 4 688 4 760 26 390 119 703 522 799
1027 25 133 24 536 -1 624 -3 9 -7 34 -11 56 -20 136 -125 379 -221 506 -38
52 -53 80 -49 94 45 158 45 323 -1 478 -15 52 -78 165 -113 206 -56 62 -143
117 -236 149 l-80 27 -767 3 -768 3 0 -1601z m1288 141 c84 -23 183 -148 207
-261 22 -99 7 -227 -34 -308 -30 -60 -97 -128 -148 -152 -45 -22 -60 -23 -283
-25 -129 -1 -242 1 -250 4 -13 5 -15 54 -15 376 l0 370 30 5 c55 9 452 1 493
-9z"/>
</g>
</svg>
