<?xml version="1.0" standalone="no"?>
<!DOCTYPE svg PUBLIC "-//W3C//DTD SVG 20010904//EN"
 "http://www.w3.org/TR/2001/REC-SVG-20010904/DTD/svg10.dtd">
<svg version="1.0" xmlns="http://www.w3.org/2000/svg"
 width="16.000000pt" height="16.000000pt" viewBox="0 0 16.000000 16.000000"
 preserveAspectRatio="xMidYMid meet">
<metadata>
Created by potrace 1.11, written by Peter Selinger 2001-2013
</metadata>
<g transform="translate(0.000000,16.000000) scale(0.003200,-0.003200)"
fill="#000000" stroke="none">
<path d="M210 3880 l0 -310 785 -2 784 -3 -252 -360 c-265 -377 -448 -638
-469 -668 -7 -10 -114 -163 -238 -340 -124 -177 -333 -475 -465 -662 -131
-187 -247 -362 -258 -390 -17 -43 -20 -77 -21 -235 l-1 -185 1960 0 c1078 0
1992 4 2030 8 39 4 88 12 110 18 22 6 51 13 64 15 13 3 51 14 85 26 312 107
533 358 591 673 14 76 17 276 5 341 -59 332 -318 603 -654 686 l-88 22 62 17
c194 53 359 187 447 364 57 113 84 240 85 395 3 525 -300 824 -902 890 -49 5
-843 9 -1872 10 l-1788 0 0 -310z m3700 166 c244 -49 312 -71 422 -136 155
-93 253 -234 292 -423 16 -74 22 -257 11 -307 -3 -14 -8 -41 -11 -60 -32 -193
-156 -357 -335 -444 -84 -40 -219 -82 -334 -102 -22 -3 -278 -9 -570 -11
l-530 -5 1 749 c1 411 2 749 3 751 2 7 1017 -5 1051 -12z m-1184 -1551 l0
-1155 -808 0 c-444 0 -808 3 -808 6 0 3 130 191 288 417 159 227 306 437 328
468 223 319 483 690 541 772 40 56 77 109 83 117 6 8 50 71 99 140 141 201
220 312 246 353 14 20 27 37 28 37 2 0 3 -520 3 -1155z m1334 -76 c30 -5 70
-11 89 -14 72 -11 219 -68 293 -112 177 -106 299 -269 340 -453 19 -84 20
-264 3 -356 -62 -322 -294 -536 -661 -611 -80 -16 -150 -18 -679 -18 l-590 0
0 780 c-1 429 1 784 3 788 5 11 1134 7 1202 -4z"/>
</g>
</svg>
