<?xml version="1.0" standalone="no"?>
<!DOCTYPE svg PUBLIC "-//W3C//DTD SVG 20010904//EN"
 "http://www.w3.org/TR/2001/REC-SVG-20010904/DTD/svg10.dtd">
<svg version="1.0" xmlns="http://www.w3.org/2000/svg"
 width="16.000000pt" height="16.000000pt" viewBox="0 0 16.000000 16.000000"
 preserveAspectRatio="xMidYMid meet">
<metadata>
Created by potrace 1.11, written by Peter Selinger 2001-2013
</metadata>
<g transform="translate(0.000000,16.000000) scale(0.003200,-0.003200)"
fill="#000000" stroke="none">
<path d="M70 4700 l0 -220 2435 0 2435 0 0 220 0 220 -2435 0 -2435 0 0 -220z"/>
<path d="M1468 4193 l-1258 -3 0 -310 0 -310 785 -2 784 -3 -270 -385 c-149
-212 -307 -438 -352 -504 -45 -65 -86 -123 -92 -130 -5 -6 -25 -34 -44 -61
-36 -52 -647 -924 -808 -1153 -133 -189 -135 -196 -137 -422 l-1 -185 1955 -2
c2096 -2 2011 -4 2214 47 164 41 375 167 464 278 19 22 42 51 52 62 49 56 129
245 146 344 2 17 7 45 11 61 3 17 6 80 7 140 3 188 -38 331 -138 480 -51 77
-174 199 -250 249 -93 62 -251 122 -334 129 -37 2 -25 11 41 30 252 74 429
260 497 522 14 53 23 122 25 205 6 184 -17 309 -77 440 -126 269 -397 430
-808 479 -41 5 -318 8 -615 8 -297 -1 -1106 -3 -1797 -4z m2377 -133 c465 -54
712 -233 775 -565 20 -103 16 -350 -5 -385 -2 -4 -7 -21 -10 -38 -8 -45 -48
-133 -85 -188 -111 -160 -271 -243 -584 -300 -17 -4 -269 -8 -561 -11 l-530
-5 2 729 c1 400 2 738 2 751 l1 22 453 0 c248 0 493 -5 542 -10z m-1128 -1575
l0 -1145 -804 0 c-441 0 -803 3 -803 6 0 3 27 45 61 93 68 97 410 584 474 676
23 33 60 85 81 116 271 388 605 864 621 884 10 13 62 88 112 160 160 232 247
355 252 355 3 0 6 -515 6 -1145z m1343 -56 c151 -21 297 -73 405 -144 218
-145 333 -361 329 -620 -2 -162 -25 -269 -85 -387 -29 -58 -106 -159 -144
-189 -11 -10 -32 -28 -48 -41 -80 -70 -222 -134 -374 -169 -95 -23 -115 -23
-698 -27 l-600 -3 2 773 c1 425 2 783 2 796 l1 22 573 -1 c314 -1 601 -5 637
-10z"/>
<path d="M70 310 l0 -220 2435 0 2435 0 0 220 0 220 -2435 0 -2435 0 0 -220z"/>
</g>
</svg>
